<?xml version="1.0" encoding="utf-8"?>
<!-- Generator: Adobe Illustrator 13.0.0, SVG Export Plug-In . SVG Version: 6.00 Build 14948)  -->
<!DOCTYPE svg PUBLIC "-//W3C//DTD SVG 1.1//EN" "http://www.w3.org/Graphics/SVG/1.1/DTD/svg11.dtd">
<svg version="1.1" id="Layer_1" xmlns="http://www.w3.org/2000/svg" xmlns:xlink="http://www.w3.org/1999/xlink" x="0px" y="0px"
	 width="32px" height="32px" viewBox="0 0 32 32" enable-background="new 0 0 32 32" xml:space="preserve">
<g>
	<g>
		<circle fill="#FFC107" cx="15.53" cy="15.667" r="15.5"/>
	</g>
	<g>
		<path fill="#434C6D" d="M15.53,7.687c-3.938,0-7.141,3.203-7.141,7.14c0,2.989,1.844,5.635,4.62,6.68v3.822
			c0,0.232,0.188,0.42,0.42,0.42h0.42v0.84c0,0.232,0.188,0.42,0.42,0.42h2.521c0.232,0,0.42-0.188,0.42-0.42v-0.84h0.42
			c0.232,0,0.42-0.188,0.42-0.42v-3.822c2.776-1.045,4.62-3.691,4.62-6.68C22.67,10.89,19.467,7.687,15.53,7.687z M16.79,24.909
			c-0.232,0-0.42,0.188-0.42,0.42v0.84h-1.681v-0.84c0-0.232-0.188-0.42-0.42-0.42h-0.42v-2.102h3.36v2.102H16.79z M17.499,20.81
			c-0.173,0.057-0.289,0.219-0.289,0.398v0.76h-3.36v-0.76c0-0.18-0.116-0.342-0.289-0.398c-2.59-0.852-4.331-3.256-4.331-5.983
			c0-3.474,2.826-6.3,6.301-6.3c3.474,0,6.3,2.826,6.3,6.3C21.83,17.554,20.089,19.958,17.499,20.81z"/>
		<path fill="#434C6D" d="M15.53,6.846c0.231,0,0.42-0.188,0.42-0.42v-1.68c0-0.232-0.188-0.42-0.42-0.42
			c-0.232,0-0.421,0.188-0.421,0.42v1.68C15.109,6.659,15.298,6.846,15.53,6.846z"/>
		<path fill="#434C6D" d="M25.61,14.407h-1.68c-0.232,0-0.42,0.188-0.42,0.42c0,0.232,0.188,0.42,0.42,0.42h1.68
			c0.232,0,0.42-0.188,0.42-0.42C26.03,14.595,25.843,14.407,25.61,14.407z"/>
		<path fill="#434C6D" d="M7.129,14.407h-1.68c-0.232,0-0.42,0.188-0.42,0.42c0,0.232,0.188,0.42,0.42,0.42h1.68
			c0.232,0,0.421-0.188,0.421-0.42C7.55,14.595,7.361,14.407,7.129,14.407z"/>
		<path fill="#434C6D" d="M22.361,7.402l-1.188,1.188c-0.164,0.165-0.164,0.43,0,0.594c0.082,0.082,0.189,0.124,0.297,0.124
			c0.108,0,0.216-0.042,0.297-0.124l1.188-1.188c0.164-0.164,0.164-0.43,0-0.594S22.524,7.238,22.361,7.402z"/>
		<path fill="#434C6D" d="M9.293,20.472l-1.188,1.188c-0.164,0.164-0.164,0.43,0,0.594c0.082,0.082,0.189,0.123,0.297,0.123
			s0.216-0.041,0.297-0.123l1.188-1.188c0.164-0.164,0.164-0.43,0-0.594S9.457,20.308,9.293,20.472z"/>
		<path fill="#434C6D" d="M21.767,20.472c-0.164-0.164-0.429-0.164-0.594,0c-0.164,0.164-0.164,0.43,0,0.594l1.188,1.188
			c0.082,0.082,0.189,0.123,0.297,0.123s0.215-0.041,0.297-0.123c0.164-0.164,0.164-0.43,0-0.594L21.767,20.472z"/>
		<path fill="#434C6D" d="M9.293,9.183c0.081,0.082,0.188,0.124,0.296,0.124c0.108,0,0.216-0.042,0.298-0.124
			c0.164-0.164,0.164-0.429,0-0.594L8.698,7.402c-0.164-0.164-0.429-0.164-0.594,0c-0.164,0.164-0.164,0.43,0,0.594L9.293,9.183z"/>
		<path fill="#434C6D" d="M15.53,9.787c-2.779,0-5.041,2.261-5.041,5.04c0,0.232,0.188,0.42,0.42,0.42c0.232,0,0.42-0.188,0.42-0.42
			c0-2.315,1.885-4.2,4.201-4.2c0.231,0,0.42-0.188,0.42-0.42S15.762,9.787,15.53,9.787z"/>
	</g>
</g>
</svg>
