<?xml version="1.0" encoding="utf-8"?>
<!-- Generator: Adobe Illustrator 13.0.0, SVG Export Plug-In . SVG Version: 6.00 Build 14948)  -->
<!DOCTYPE svg PUBLIC "-//W3C//DTD SVG 1.1//EN" "http://www.w3.org/Graphics/SVG/1.1/DTD/svg11.dtd">
<svg version="1.1" id="Layer_1" xmlns="http://www.w3.org/2000/svg" xmlns:xlink="http://www.w3.org/1999/xlink" x="0px" y="0px"
	 width="32px" height="32px" viewBox="0 0 32 32" enable-background="new 0 0 32 32" xml:space="preserve">
<g>
	<g>
		<circle fill="#673AB7" cx="15.265" cy="15.638" r="15.5"/>
	</g>
</g>
<g>
	<g>
		<g>
			<path fill="#FFFFFF" d="M8.265,20.972c0.183,0,0.333-0.149,0.333-0.334V7.304c0-0.484,0.514-0.999,1-0.999h11.334
				c0.485,0,0.999,0.515,0.999,0.999c0,0.185,0.149,0.334,0.334,0.334c0.184,0,0.333-0.149,0.333-0.334
				c0-0.856-0.81-1.666-1.666-1.666H9.598c-0.856,0-1.666,0.81-1.666,1.666v13.334C7.932,20.822,8.081,20.972,8.265,20.972z"/>
			<path fill="#FFFFFF" d="M22.265,8.305H9.598c-0.184,0-0.333,0.149-0.333,0.333c0,0.185,0.149,0.334,0.333,0.334h12.333v15
				c0,0.484-0.514,0.999-0.999,0.999H9.598c-0.486,0-1-0.515-1-0.999v-1.668h12.334c0.184,0,0.333-0.149,0.333-0.333
				s-0.149-0.332-0.333-0.332H8.265c-0.185,0-0.333,0.148-0.333,0.332v2.001c0,0.856,0.81,1.666,1.666,1.666h11.334
				c0.856,0,1.666-0.81,1.666-1.666V8.638C22.598,8.454,22.448,8.305,22.265,8.305z"/>
			<path fill="#FFFFFF" d="M15.271,6.971c-0.184,0-0.332,0.149-0.332,0.333c0,0.185,0.15,0.334,0.335,0.334
				c0.184,0,0.333-0.149,0.333-0.334c0-0.184-0.149-0.333-0.333-0.333H15.271z"/>
			<path fill="#FFFFFF" d="M14.598,23.638c0,0.368,0.299,0.667,0.667,0.667s0.667-0.299,0.667-0.667
				c0-0.367-0.299-0.667-0.667-0.667S14.598,23.271,14.598,23.638z"/>
		</g>
	</g>
</g>
</svg>
