<?xml version="1.0" encoding="utf-8"?>
<!-- Generator: Adobe Illustrator 13.0.0, SVG Export Plug-In . SVG Version: 6.00 Build 14948)  -->
<!DOCTYPE svg PUBLIC "-//W3C//DTD SVG 1.1//EN" "http://www.w3.org/Graphics/SVG/1.1/DTD/svg11.dtd">
<svg version="1.1" id="Layer_1" xmlns="http://www.w3.org/2000/svg" xmlns:xlink="http://www.w3.org/1999/xlink" x="0px" y="0px"
	 width="32px" height="32px" viewBox="0 0 32 32" enable-background="new 0 0 32 32" xml:space="preserve">
<g>
	<g>
		<circle fill="#CDDC39" cx="15.279" cy="16.069" r="15.5"/>
	</g>
</g>
<g>
	<line fill="none" stroke="#434C6D" stroke-width="0.75" x1="16.382" y1="13.685" x2="24.778" y2="13.685"/>
	<line fill="none" stroke="#434C6D" stroke-width="0.75" x1="5.778" y1="13.685" x2="14.175" y2="13.685"/>
	<path fill="none" stroke="#434C6D" stroke-width="0.75" d="M16.399,15.571c0,0.368-0.298,0.666-0.666,0.666h-0.943
		c-0.368,0-0.666-0.298-0.666-0.666v-2.719c0-0.367,0.298-0.666,0.666-0.666h0.943c0.368,0,0.666,0.299,0.666,0.666V15.571z"/>
	<g>
		<g>
			<path fill="none" stroke="#434C6D" stroke-width="0.75" d="M24.778,22.748V10.281c0-0.388-0.315-0.702-0.704-0.702H6.561
				c-0.389,0-0.704,0.314-0.704,0.702v12.467c0,0.362,0.279,0.651,0.632,0.688l1.419-0.041v0.056H22.86l1.417-0.041
				C24.565,23.321,24.778,23.063,24.778,22.748z M22.86,23.451l-0.135,0.004v0.439c0,0.368,0.298,0.665,0.665,0.665h0.722
				c0.367,0,0.666-0.297,0.666-0.665v-0.499l-0.501,0.015c-0.065,0.021-0.131,0.041-0.203,0.041H22.86z M6.489,23.437l-0.634,0.019
				v0.439c0,0.368,0.297,0.665,0.665,0.665h0.722c0.368,0,0.667-0.297,0.667-0.665v-0.443H6.561
				C6.535,23.451,6.514,23.439,6.489,23.437z"/>
		</g>
	</g>
</g>
</svg>
